# xmcd
#
# Track frame offsets: 
#        150
#        21793
#        34422
#        39221
#        53844
#        61033
#        80491
#        105130
#        131721
#        165444
#
# Disc length: 2344 seconds
#
# Revision: 0
# Processed by: cddbd v1.5.2PL0 Copyright (c) Steve Scherf et al.
# Submitted via: ExactAudioCopy v0.95b4
#
DISCID=6f09260a
DTITLE=Звуки Му - Инструментальные Вариации
DYEAR=1996
DGENRE=Alternative Rock
TTITLE0=Спиритиз [Катя - виолончель]
TTITLE1=Восторг
TTITLE2=Начитался Книг
TTITLE3=Консервный Нож (Не Указан В Трек Листе) [Часть 1]
TTITLE4=Консервный Нож (Не Указан В Трек Листе) [Часть 2]
TTITLE5=Консервный Нож (Не Указан В Трек Листе) [Часть 3]
TTITLE6=Больничный Лист [Е. Казанцев - бас, Ю. 'Хэн' Кистенёв - бараба
TTITLE6=ны]
TTITLE7=Консервный Нож [Е. Казанцев - бас, А. Надольский - барабаны, В
TTITLE7=Чекасин - альт-саксофон]
TTITLE8=Возле Тимирязева [Е. Казанцев - бас, А. Надольский - барабаны]
TTITLE9=Сладкая Жизнь [М. Жуков - барабаны, перкуссия]
EXTD=
EXTT0=
EXTT1=
EXTT2=
EXTT3=
EXTT4=
EXTT5=
EXTT6=
EXTT7=
EXTT8=
EXTT9=
PLAYORDER=
